<svg xmlns="http://www.w3.org/2000/svg" width="20" height="20" viewBox="0 0 20 20"><path d="M10.563.562a10,10,0,1,0,5.46,18.378.969.969,0,0,0,.224-1.426l-.41-.5a.965.965,0,0,0-1.265-.207A7.419,7.419,0,1,1,10.563,3.143c4.038,0,7.419,2.323,7.419,6.452,0,1.564-.851,3.215-2.346,3.375-.7-.018-.682-.518-.543-1.211l.945-4.883a.968.968,0,0,0-.95-1.152H13.274a.545.545,0,0,0-.542.484v0a3.1,3.1,0,0,0-2.418-.878c-3.007,0-5.558,2.509-5.558,6.107,0,2.633,1.483,4.269,3.871,4.269a4.08,4.08,0,0,0,3.024-1.546c.384,1.375,1.638,1.375,2.851,1.375,4.391,0,6.06-2.888,6.06-5.944C20.563,4.1,16.128.562,10.563.562ZM9.688,12.838a1.445,1.445,0,0,1-1.454-1.644A2.694,2.694,0,0,1,10.6,8.261c.9,0,1.436.615,1.436,1.644A2.783,2.783,0,0,1,9.688,12.838Z" transform="translate(-0.563 -0.562)" fill="#c40"/></svg>