<svg xmlns="http://www.w3.org/2000/svg" width="30.075" height="25" viewBox="0 0 30.075 25"><path d="M29.4,5.791,26.227.732A1.563,1.563,0,0,0,24.9,0H5.177A1.563,1.563,0,0,0,3.854.732L.685,5.791a4.356,4.356,0,0,0,2.871,6.66,5.075,5.075,0,0,0,.669.044,4.821,4.821,0,0,0,3.6-1.616,4.825,4.825,0,0,0,7.207,0,4.825,4.825,0,0,0,7.207,0,4.837,4.837,0,0,0,3.6,1.616,5.02,5.02,0,0,0,.669-.044A4.352,4.352,0,0,0,29.4,5.791Zm-3.54,8.271a6.2,6.2,0,0,1-1.44-.186V18.75H5.665V13.877a6.469,6.469,0,0,1-1.44.186A6.588,6.588,0,0,1,3.346,14a6.141,6.141,0,0,1-.8-.176v9.609A1.561,1.561,0,0,0,4.108,25H25.983a1.561,1.561,0,0,0,1.563-1.562V13.828a4.985,4.985,0,0,1-.8.176A6.79,6.79,0,0,1,25.856,14.062Z" transform="translate(-0.004)" fill="#c40"/></svg>