<svg xmlns="http://www.w3.org/2000/svg" width="45.142" height="28.284" viewBox="0 0 45.142 28.284"><g transform="translate(0 -7)"><path d="M8.854,12.848V8.467L11.43,7.285c2.855,3.4,3.923,12.247,10.836,12.247a2.734,2.734,0,0,1,0,5.469C11.883,25,4.167,19,1.8,14.73l1.809-1.882ZM2.453,6.58C.883,3.658,1.7,1.293,2.606.147A.391.391,0,0,1,3.189.118L4.307,1.241a.394.394,0,0,1,.043.5,3.423,3.423,0,0,0,.068,3.531,6.9,6.9,0,0,1,6.519.519L7.292,7.465v3.82H2.941L.271,14.063A7.628,7.628,0,0,1,0,12.144,7.52,7.52,0,0,1,2.453,6.58Z" transform="translate(0 9.033)" fill="#c40"/><path d="M12.413,10l7.43-7.43a.535.535,0,0,0,0-.758,3.75,3.75,0,0,0-5.3,0L9.383,6.97,8.273,5.86A4.286,4.286,0,1,0,4.882,8.53L6.352,10l-1.47,1.47a4.281,4.281,0,1,0,3.391,2.67l1.11-1.11,5.157,5.157a3.75,3.75,0,0,0,5.3,0,.535.535,0,0,0,0-.758ZM4.286,5.714A1.429,1.429,0,1,1,5.714,4.286,1.43,1.43,0,0,1,4.286,5.714Zm0,11.429a1.429,1.429,0,1,1,1.429-1.429A1.43,1.43,0,0,1,4.286,17.143Z" transform="translate(16.858 21.142) rotate(-45)" fill="#c40"/></g></svg>